<?xml version="1.0" encoding="UTF-8" standalone="no"?>
<svg
   xmlns:dc="http://purl.org/dc/elements/1.1/"
   xmlns:cc="http://creativecommons.org/ns#"
   xmlns:rdf="http://www.w3.org/1999/02/22-rdf-syntax-ns#"
   xmlns:svg="http://www.w3.org/2000/svg"
   xmlns="http://www.w3.org/2000/svg"
   viewBox="0 0 15.066667 17.813334"
   height="17.813334"
   width="15.066667"
   xml:space="preserve"
   id="svg2"
   version="1.1"><metadata
     id="metadata8"><rdf:RDF><cc:Work
         rdf:about=""><dc:format>image/svg+xml</dc:format><dc:type
           rdf:resource="http://purl.org/dc/dcmitype/StillImage" /><dc:title></dc:title></cc:Work></rdf:RDF></metadata><defs
     id="defs6" /><g
     transform="matrix(1.3333333,0,0,-1.3333333,0,17.813333)"
     id="g10"><g
       transform="scale(0.1)"
       id="g12"><path
         id="path14"
         style="fill:#231f20;fill-opacity:1;fill-rule:nonzero;stroke:none"
         d="m 56.4648,70.0195 c 5.8477,-0.0351 10.7305,4.7539 10.7891,10.586 0.0703,6.0039 -4.7266,10.914 -10.6719,10.9414 C 50.6445,91.5781 45.8008,86.8203 45.7617,80.9219 45.7109,74.9063 50.4766,70.0586 56.4648,70.0195 Z M 33.9727,80.7852 c 0.0195,5.2929 1.6992,10.0781 5.0898,14.25 5.7617,7.1018 15.3516,10.0508 24.2461,7.1488 C 71.7578,99.4219 76.8047,93.4648 78.6211,84.7539 79.4727,80.6484 78.6719,76.7227 77.4297,72.832 74.9688,65.1406 71.6484,57.8008 68.0859,50.5742 64.9219,44.1563 61.5625,37.8203 58.3008,31.4453 l -1.7305,-1.168 -1.8359,1.1172 c -2.2266,4.2305 -4.4922,8.4336 -6.6485,12.6914 -4.2695,8.4024 -8.3711,16.8868 -11.4961,25.793 -0.996,2.8359 -1.6289,5.793 -2.3828,8.7109 l -0.2343,2.1954" /></g></g></svg>