<?xml version="1.0" encoding="UTF-8" standalone="no"?>
<svg
   xmlns:dc="http://purl.org/dc/elements/1.1/"
   xmlns:cc="http://creativecommons.org/ns#"
   xmlns:rdf="http://www.w3.org/1999/02/22-rdf-syntax-ns#"
   xmlns:svg="http://www.w3.org/2000/svg"
   xmlns="http://www.w3.org/2000/svg"
   xml:space="preserve"
   style="enable-background:new 0 0 11.29 13.36;"
   viewBox="0 0 11.29 13.36"
   y="0px"
   x="0px"
   id="Calque_1"
   version="1.1"><metadata
   id="metadata21"><rdf:RDF><cc:Work
       rdf:about=""><dc:format>image/svg+xml</dc:format><dc:type
         rdf:resource="http://purl.org/dc/dcmitype/StillImage" /><dc:title></dc:title></cc:Work></rdf:RDF></metadata><defs
   id="defs19" />
<style
   id="style2"
   type="text/css">
	.st0{fill:#1F5467;}
	.st1{fill:#FFFFFF;}
</style>
<g
   id="g8">
	<g
   id="g6">
		<path
   id="path4"
   d="M5.65,2.78c-2.43,0-4.33,1.99-4.32,4.29c-0.02,2.42,1.95,4.35,4.32,4.35c2.38,0,4.32-1.94,4.32-4.31    C9.97,4.72,8.04,2.78,5.65,2.78z"
   class="st0" />
	</g>
</g>
<g
   id="g14">
	<path
   id="path10"
   d="M5.1,7.73v1.79H4.53V5.08h1.41c0.51,0,0.89,0.12,1.14,0.36C7.33,5.67,7.46,6,7.46,6.41   c0,0.42-0.13,0.74-0.39,0.97C6.81,7.61,6.43,7.73,5.94,7.73H5.1z M6.64,7.03c0.15-0.15,0.23-0.36,0.23-0.62   c0-0.28-0.08-0.49-0.23-0.63c-0.15-0.15-0.4-0.22-0.75-0.22H5.1v1.7h0.79C6.24,7.25,6.49,7.18,6.64,7.03z"
   class="st1" />
	<path
   id="path12"
   d="M5.35,9.77H4.28V4.83h1.66c0.57,0,1.01,0.14,1.31,0.42c0.3,0.29,0.46,0.67,0.46,1.15   c0,0.49-0.16,0.88-0.47,1.16c-0.31,0.27-0.74,0.41-1.3,0.41H5.35V9.77z M4.78,9.27h0.07V5.33H4.78V9.27z M6.45,5.38   C6.6,5.43,6.72,5.5,6.81,5.59c0.2,0.19,0.31,0.47,0.31,0.81c0,0.34-0.1,0.61-0.31,0.8l0,0C6.72,7.3,6.6,7.37,6.46,7.42   C6.64,7.37,6.79,7.3,6.9,7.19c0.21-0.19,0.31-0.44,0.31-0.79c0-0.34-0.1-0.6-0.3-0.79C6.79,5.51,6.64,5.43,6.45,5.38z M5.35,7h0.54   c0.28,0,0.48-0.05,0.58-0.15c0.1-0.1,0.15-0.25,0.15-0.44c0-0.21-0.05-0.35-0.15-0.45c-0.1-0.1-0.3-0.15-0.58-0.15H5.35V7z"
   class="st1" />
</g>
</svg>